<?xml version="1.0" encoding="UTF-8" standalone="no"?>
<!-- Created with Inkscape (http://www.inkscape.org/) -->

<svg
   width="33mm"
   height="22mm"
   viewBox="0 0 33 22"
   version="1.1"
   id="svg10838"
   inkscape:version="1.1.1 (3bf5ae0d25, 2021-09-20)"
   sodipodi:docname="949.svg"
   xmlns:inkscape="http://www.inkscape.org/namespaces/inkscape"
   xmlns:sodipodi="http://sodipodi.sourceforge.net/DTD/sodipodi-0.dtd"
   xmlns="http://www.w3.org/2000/svg"
   xmlns:svg="http://www.w3.org/2000/svg">
  <sodipodi:namedview
     id="namedview10840"
     pagecolor="#ffffff"
     bordercolor="#666666"
     borderopacity="1.0"
     inkscape:pageshadow="2"
     inkscape:pageopacity="0.0"
     inkscape:pagecheckerboard="0"
     inkscape:document-units="mm"
     showgrid="false"
     inkscape:zoom="0.64052329"
     inkscape:cx="139.7295"
     inkscape:cy="193.59171"
     inkscape:window-width="1920"
     inkscape:window-height="1135"
     inkscape:window-x="0"
     inkscape:window-y="0"
     inkscape:window-maximized="1"
     inkscape:current-layer="layer1" />
  <defs
     id="defs10835" />
  <g
     inkscape:label="Шар 1"
     inkscape:groupmode="layer"
     id="layer1"
     transform="translate(-68.180107,-97.225311)">
    <g
       id="g10938">
      <rect
         style="fill:#e30a17;fill-opacity:1;stroke-width:0"
         id="rect9324"
         width="33"
         height="22"
         x="68.180107"
         y="97.225311" />
      <g
         id="g2966"
         transform="translate(173.35833,-72.3087)">
        <g
           id="path16685"
           transform="matrix(0.26458333,0,0,0.26458333,13.965156,-17.957636)"
           style="fill:#ffffff">
          <path
             style="color:#000000;fill:#ffffff;stroke-width:0.0643508;-inkscape-stroke:none"
             d="m -413.74306,771.10915 c -3.97478,-0.55607 -7.77915,-2.48445 -10.72321,-5.43543 -2.9953,-3.00234 -4.89065,-6.51266 -5.88776,-10.90452 -0.40667,-1.79124 -0.49397,-6.2367 -0.16215,-8.25727 1.16449,-7.09094 5.73842,-13.2532 11.83361,-15.94291 2.66958,-1.17804 3.77889,-1.39593 7.16054,-1.4065 2.57006,-0.008 3.17093,0.0428 4.37185,0.37006 2.10903,0.57468 3.97906,1.42697 5.8086,2.64735 1.6434,1.09623 2.89855,2.20129 2.16351,1.90481 -0.18729,-0.0755 -0.99178,-0.32886 -1.78775,-0.56294 -1.25367,-0.36866 -1.80017,-0.42769 -4.08627,-0.44136 -2.25302,-0.0135 -2.84909,0.0413 -4.0749,0.37466 -2.84405,0.77337 -5.12667,2.06875 -7.22316,4.0991 -1.67329,1.62051 -2.6293,2.94627 -3.59213,4.98146 -2.91153,6.15422 -2.10678,13.28494 2.0962,18.57395 4.50422,5.66808 11.84853,7.61306 18.83827,4.9889 0.5484,-0.20589 -0.89622,1.01806 -2.41456,2.04571 -3.48532,2.35897 -8.3258,3.52381 -12.32069,2.96493 z"
             id="path2519" />
          <path
             style="color:#000000;fill:#ffffff;-inkscape-stroke:none"
             d="m -411.52148,729.13086 c -3.38301,0.0106 -4.50258,0.22943 -7.17383,1.4082 -6.10635,2.69464 -10.68733,8.86551 -11.85352,15.9668 -0.33319,2.0289 -0.24493,6.46805 0.16406,8.26953 0.99824,4.39683 2.89713,7.91547 5.89649,10.92188 2.94889,2.95582 6.75814,4.88626 10.74023,5.44335 4.0045,0.56023 8.85106,-0.60674 12.34375,-2.9707 0.76016,-0.51449 1.5007,-1.07654 1.98438,-1.48633 0.24184,-0.20489 0.41842,-0.37043 0.5039,-0.47656 0.0214,-0.0265 0.0387,-0.0493 0.0488,-0.0703 0.0101,-0.021 0.0172,-0.0443 0.002,-0.0684 -0.008,-0.012 -0.0197,-0.0206 -0.0312,-0.0234 -0.0115,-0.003 -0.0232,-10e-4 -0.0352,0 -0.024,0.003 -0.0522,0.0101 -0.0879,0.0234 -6.97789,2.61971 -14.30494,0.67903 -18.80078,-4.97852 -4.19546,-5.27954 -5.00019,-12.39755 -2.09375,-18.54101 0.96162,-2.03263 1.91455,-3.35204 3.58594,-4.97071 2.09301,-2.02698 4.3695,-3.31967 7.20898,-4.09179 1.22412,-0.3329 1.81394,-0.38655 4.06641,-0.37305 2.28557,0.0137 2.82599,0.0712 4.07812,0.43945 0.79557,0.23397 1.60435,0.48962 1.78516,0.5625 0.0936,0.0378 0.15394,0.0546 0.20117,0.0488 0.0118,-10e-4 0.0226,-0.004 0.0332,-0.0117 0.0106,-0.007 0.0184,-0.0189 0.0215,-0.0312 0.006,-0.0247 -1.1e-4,-0.0454 -0.0117,-0.0684 -0.0464,-0.0918 -0.1858,-0.23293 -0.40039,-0.42187 -0.4292,-0.37787 -1.15581,-0.92973 -1.97852,-1.47852 -1.8322,-1.22215 -3.7062,-2.07485 -5.81836,-2.65039 -1.20273,-0.32775 -1.80841,-0.37909 -4.3789,-0.37109 z m 0,0.0644 c 2.56961,-0.008 3.16417,0.0424 4.36328,0.36914 2.10589,0.57383 3.97195,1.42398 5.79883,2.64258 0.82069,0.54744 1.54523,1.09806 1.9707,1.47266 0.21273,0.1873 0.35124,0.33412 0.38476,0.40039 0.007,0.0139 0.005,0.0202 0.006,0.0215 -0.0191,0.002 -0.0788,-0.0109 -0.16797,-0.0469 -0.19377,-0.0781 -0.99464,-0.33026 -1.79101,-0.56446 -1.25521,-0.36911 -1.80908,-0.42773 -4.0957,-0.4414 -2.25358,-0.0135 -2.85454,0.0412 -4.08204,0.375 -2.84861,0.77461 -5.13832,2.07371 -7.23828,4.10742 -1.67519,1.62235 -2.63361,2.95249 -3.59765,4.99023 -2.91662,6.16497 -2.11089,13.30896 2.09961,18.60743 4.51258,5.6786 11.87342,7.6286 18.875,5 0.0329,-0.0124 0.0579,-0.0199 0.0723,-0.0215 -5e-4,0.002 -1.8e-4,-0.002 -0.002,0.002 -0.006,0.0132 -0.0194,0.0322 -0.0391,0.0566 -0.0786,0.0976 -0.25554,0.26493 -0.4961,0.46875 -0.48112,0.40762 -1.22033,0.96926 -1.97851,1.48242 -3.47794,2.35397 -8.31355,3.51847 -12.29883,2.96093 -3.96746,-0.55504 -7.76586,-2.4816 -10.70508,-5.42773 -2.99123,-2.99826 -4.88293,-6.50179 -5.87891,-10.88867 -0.40434,-1.781 -0.49256,-6.23191 -0.1621,-8.24414 1.16278,-7.08058 5.73043,-13.23514 11.81445,-15.91992 2.6679,-1.17731 3.76815,-1.39178 7.14844,-1.40235 z"
             id="path2521" />
        </g>
        <path
           sodipodi:type="star"
           style="fill:#ffffff;stroke:none;stroke-width:0.377953"
           id="path2625"
           inkscape:flatsided="false"
           sodipodi:sides="5"
           sodipodi:cx="-441.71011"
           sodipodi:cy="713.26062"
           sodipodi:r1="6.1307063"
           sodipodi:r2="2.4154983"
           sodipodi:arg1="0.44396002"
           sodipodi:arg2="1.0722785"
           inkscape:rounded="0"
           inkscape:randomized="0"
           transform="matrix(0.37718744,0.05965425,-0.05965425,0.37718744,120.64199,-62.030841)"
           inkscape:transform-center-x="0.20455681"
           inkscape:transform-center-y="0.019884534"
           d="m -436.17373,715.89387 -4.38148,-0.51174 -1.94844,3.95762 -0.86726,-4.32516 -4.36602,-0.63011 3.84548,-2.16136 -0.7499,-4.34705 3.24389,2.98937 3.90256,-2.05651 -1.84065,4.00889 z" />
      </g>
    </g>
  </g>
</svg>
