<?xml version="1.0" encoding="UTF-8" standalone="no"?>
<!-- Created with Inkscape (http://www.inkscape.org/) -->

<svg
   width="33mm"
   height="22mm"
   viewBox="0 0 33 22"
   version="1.1"
   id="svg9057"
   inkscape:version="1.1.1 (3bf5ae0d25, 2021-09-20)"
   sodipodi:docname="978.svg"
   xmlns:inkscape="http://www.inkscape.org/namespaces/inkscape"
   xmlns:sodipodi="http://sodipodi.sourceforge.net/DTD/sodipodi-0.dtd"
   xmlns="http://www.w3.org/2000/svg"
   xmlns:svg="http://www.w3.org/2000/svg">
  <sodipodi:namedview
     id="namedview9059"
     pagecolor="#ffffff"
     bordercolor="#666666"
     borderopacity="1.0"
     inkscape:pageshadow="2"
     inkscape:pageopacity="0.0"
     inkscape:pagecheckerboard="0"
     inkscape:document-units="mm"
     showgrid="false"
     inkscape:zoom="0.64052329"
     inkscape:cx="228.71924"
     inkscape:cy="330.97938"
     inkscape:window-width="1920"
     inkscape:window-height="1135"
     inkscape:window-x="0"
     inkscape:window-y="0"
     inkscape:window-maximized="1"
     inkscape:current-layer="layer1" />
  <defs
     id="defs9054" />
  <g
     inkscape:label="Шар 1"
     inkscape:groupmode="layer"
     id="layer1"
     transform="translate(-44.528022,-60.724048)">
    <g
       id="g9010"
       transform="translate(116.01435,-142.813)">
      <rect
         style="fill:#283293;fill-opacity:1;stroke-width:0"
         id="rect74053"
         width="33"
         height="22"
         x="-71.486328"
         y="203.53705" />
      <g
         id="g8994"
         transform="translate(31.712295,-0.27652606)">
        <path
           sodipodi:type="star"
           style="fill:#ffff00;fill-opacity:1;stroke-width:0"
           id="path73846"
           inkscape:flatsided="false"
           sodipodi:sides="5"
           sodipodi:cx="-501.33649"
           sodipodi:cy="485.01007"
           sodipodi:r1="12.258299"
           sodipodi:r2="4.8297696"
           sodipodi:arg1="2.1627305"
           sodipodi:arg2="2.791049"
           inkscape:rounded="0"
           inkscape:randomized="0"
           transform="matrix(0.10299882,0,0,0.10299882,-34.575271,156.89057)"
           inkscape:transform-center-x="0.014193252"
           inkscape:transform-center-y="-0.10699908"
           d="m -508.17622,495.18278 2.30368,-8.51413 -7.25236,-5.02001 8.80929,-0.44008 2.53321,-8.44868 3.14077,8.24214 8.81797,-0.20155 -6.86819,5.534 2.91659,8.32411 -7.38554,-4.82194 z" />
        <path
           sodipodi:type="star"
           style="fill:#ffff00;fill-opacity:1;stroke-width:0"
           id="path73846-3"
           inkscape:flatsided="false"
           sodipodi:sides="5"
           sodipodi:cx="-501.33649"
           sodipodi:cy="485.01007"
           sodipodi:r1="12.258299"
           sodipodi:r2="4.8297696"
           sodipodi:arg1="2.1627305"
           sodipodi:arg2="2.791049"
           inkscape:rounded="0"
           inkscape:randomized="0"
           transform="matrix(0.10299882,0,0,0.10299882,-34.311525,172.70425)"
           inkscape:transform-center-x="0.014193252"
           inkscape:transform-center-y="-0.10699908"
           d="m -508.17622,495.18278 2.30368,-8.51413 -7.25236,-5.02001 8.80929,-0.44008 2.53321,-8.44868 3.14077,8.24214 8.81797,-0.20155 -6.86819,5.534 2.91659,8.32411 -7.38554,-4.82194 z" />
        <path
           sodipodi:type="star"
           style="fill:#ffff00;fill-opacity:1;stroke-width:0"
           id="path73846-6"
           inkscape:flatsided="false"
           sodipodi:sides="5"
           sodipodi:cx="-501.33649"
           sodipodi:cy="485.01007"
           sodipodi:r1="12.258299"
           sodipodi:r2="4.8297696"
           sodipodi:arg1="2.1627305"
           sodipodi:arg2="2.791049"
           inkscape:rounded="0"
           inkscape:randomized="0"
           transform="matrix(0.10299882,0,0,0.10299882,-28.110272,169.09707)"
           inkscape:transform-center-x="0.014193252"
           inkscape:transform-center-y="-0.10699908"
           d="m -508.17622,495.18278 2.30368,-8.51413 -7.25236,-5.02001 8.80929,-0.44008 2.53321,-8.44868 3.14077,8.24214 8.81797,-0.20155 -6.86819,5.534 2.91659,8.32411 -7.38554,-4.82194 z" />
        <path
           sodipodi:type="star"
           style="fill:#ffff00;fill-opacity:1;stroke-width:0"
           id="path73846-7"
           inkscape:flatsided="false"
           sodipodi:sides="5"
           sodipodi:cx="-501.33649"
           sodipodi:cy="485.01007"
           sodipodi:r1="12.258299"
           sodipodi:r2="4.8297696"
           sodipodi:arg1="2.1627305"
           sodipodi:arg2="2.791049"
           inkscape:rounded="0"
           inkscape:randomized="0"
           transform="matrix(0.10299882,0,0,0.10299882,-40.712571,169.12241)"
           inkscape:transform-center-x="0.014193252"
           inkscape:transform-center-y="-0.10699908"
           d="m -508.17622,495.18278 2.30368,-8.51413 -7.25236,-5.02001 8.80929,-0.44008 2.53321,-8.44868 3.14077,8.24214 8.81797,-0.20155 -6.86819,5.534 2.91659,8.32411 -7.38554,-4.82194 z" />
        <path
           sodipodi:type="star"
           style="fill:#ffff00;fill-opacity:1;stroke-width:0"
           id="path73846-5"
           inkscape:flatsided="false"
           sodipodi:sides="5"
           sodipodi:cx="-501.33649"
           sodipodi:cy="485.01007"
           sodipodi:r1="12.258299"
           sodipodi:r2="4.8297696"
           sodipodi:arg1="2.1627305"
           sodipodi:arg2="2.791049"
           inkscape:rounded="0"
           inkscape:randomized="0"
           transform="matrix(0.10299882,0,0,0.10299882,-40.769834,160.65739)"
           inkscape:transform-center-x="0.014193252"
           inkscape:transform-center-y="-0.10699908"
           d="m -508.17622,495.18278 2.30368,-8.51413 -7.25236,-5.02001 8.80929,-0.44008 2.53321,-8.44868 3.14077,8.24214 8.81797,-0.20155 -6.86819,5.534 2.91659,8.32411 -7.38554,-4.82194 z" />
        <path
           sodipodi:type="star"
           style="fill:#ffff00;fill-opacity:1;stroke-width:0"
           id="path73846-35"
           inkscape:flatsided="false"
           sodipodi:sides="5"
           sodipodi:cx="-501.33649"
           sodipodi:cy="485.01007"
           sodipodi:r1="12.258299"
           sodipodi:r2="4.8297696"
           sodipodi:arg1="2.1627305"
           sodipodi:arg2="2.791049"
           inkscape:rounded="0"
           inkscape:randomized="0"
           transform="matrix(0.10299882,0,0,0.10299882,-31.068984,157.61788)"
           inkscape:transform-center-x="0.014193252"
           inkscape:transform-center-y="-0.10699908"
           d="m -508.17622,495.18278 2.30368,-8.51413 -7.25236,-5.02001 8.80929,-0.44008 2.53321,-8.44868 3.14077,8.24214 8.81797,-0.20155 -6.86819,5.534 2.91659,8.32411 -7.38554,-4.82194 z" />
        <path
           sodipodi:type="star"
           style="fill:#ffff00;fill-opacity:1;stroke-width:0"
           id="path73846-62"
           inkscape:flatsided="false"
           sodipodi:sides="5"
           sodipodi:cx="-501.33649"
           sodipodi:cy="485.01007"
           sodipodi:r1="12.258299"
           sodipodi:r2="4.8297696"
           sodipodi:arg1="2.1627305"
           sodipodi:arg2="2.791049"
           inkscape:rounded="0"
           inkscape:randomized="0"
           transform="matrix(0.10299882,0,0,0.10299882,-30.868161,171.70489)"
           inkscape:transform-center-x="0.014193252"
           inkscape:transform-center-y="-0.10699908"
           d="m -508.17622,495.18278 2.30368,-8.51413 -7.25236,-5.02001 8.80929,-0.44008 2.53321,-8.44868 3.14077,8.24214 8.81797,-0.20155 -6.86819,5.534 2.91659,8.32411 -7.38554,-4.82194 z" />
        <path
           sodipodi:type="star"
           style="fill:#ffff00;fill-opacity:1;stroke-width:0"
           id="path73846-9"
           inkscape:flatsided="false"
           sodipodi:sides="5"
           sodipodi:cx="-501.33649"
           sodipodi:cy="485.01007"
           sodipodi:r1="12.258299"
           sodipodi:r2="4.8297696"
           sodipodi:arg1="2.1627305"
           sodipodi:arg2="2.791049"
           inkscape:rounded="0"
           inkscape:randomized="0"
           transform="matrix(0.10299882,0,0,0.10299882,-27.957642,160.32478)"
           inkscape:transform-center-x="0.014193252"
           inkscape:transform-center-y="-0.10699908"
           d="m -508.17622,495.18278 2.30368,-8.51413 -7.25236,-5.02001 8.80929,-0.44008 2.53321,-8.44868 3.14077,8.24214 8.81797,-0.20155 -6.86819,5.534 2.91659,8.32411 -7.38554,-4.82194 z" />
        <path
           sodipodi:type="star"
           style="fill:#ffff00;fill-opacity:1;stroke-width:0"
           id="path73846-1"
           inkscape:flatsided="false"
           sodipodi:sides="5"
           sodipodi:cx="-501.33649"
           sodipodi:cy="485.01007"
           sodipodi:r1="12.258299"
           sodipodi:r2="4.8297696"
           sodipodi:arg1="2.1627305"
           sodipodi:arg2="2.791049"
           inkscape:rounded="0"
           inkscape:randomized="0"
           transform="matrix(0.10299882,0,0,0.10299882,-26.824419,164.74843)"
           inkscape:transform-center-x="0.014193252"
           inkscape:transform-center-y="-0.10699908"
           d="m -508.17622,495.18278 2.30368,-8.51413 -7.25236,-5.02001 8.80929,-0.44008 2.53321,-8.44868 3.14077,8.24214 8.81797,-0.20155 -6.86819,5.534 2.91659,8.32411 -7.38554,-4.82194 z" />
        <path
           sodipodi:type="star"
           style="fill:#ffff00;fill-opacity:1;stroke-width:0"
           id="path73846-2"
           inkscape:flatsided="false"
           sodipodi:sides="5"
           sodipodi:cx="-501.33649"
           sodipodi:cy="485.01007"
           sodipodi:r1="12.258299"
           sodipodi:r2="4.8297696"
           sodipodi:arg1="2.1627305"
           sodipodi:arg2="2.791049"
           inkscape:rounded="0"
           inkscape:randomized="0"
           transform="matrix(0.10299882,0,0,0.10299882,-38.121505,171.86747)"
           inkscape:transform-center-x="0.014193252"
           inkscape:transform-center-y="-0.10699908"
           d="m -508.17622,495.18278 2.30368,-8.51413 -7.25236,-5.02001 8.80929,-0.44008 2.53321,-8.44868 3.14077,8.24214 8.81797,-0.20155 -6.86819,5.534 2.91659,8.32411 -7.38554,-4.82194 z" />
        <path
           sodipodi:type="star"
           style="fill:#ffff00;fill-opacity:1;stroke-width:0"
           id="path73846-70"
           inkscape:flatsided="false"
           sodipodi:sides="5"
           sodipodi:cx="-501.33649"
           sodipodi:cy="485.01007"
           sodipodi:r1="12.258299"
           sodipodi:r2="4.8297696"
           sodipodi:arg1="2.1627305"
           sodipodi:arg2="2.791049"
           inkscape:rounded="0"
           inkscape:randomized="0"
           transform="matrix(0.10299882,0,0,0.10299882,-37.9684,157.90807)"
           inkscape:transform-center-x="0.014193252"
           inkscape:transform-center-y="-0.10699908"
           d="m -508.17622,495.18278 2.30368,-8.51413 -7.25236,-5.02001 8.80929,-0.44008 2.53321,-8.44868 3.14077,8.24214 8.81797,-0.20155 -6.86819,5.534 2.91659,8.32411 -7.38554,-4.82194 z" />
        <path
           sodipodi:type="star"
           style="fill:#ffff00;fill-opacity:1;stroke-width:0"
           id="path73846-93"
           inkscape:flatsided="false"
           sodipodi:sides="5"
           sodipodi:cx="-501.33649"
           sodipodi:cy="485.01007"
           sodipodi:r1="12.258299"
           sodipodi:r2="4.8297696"
           sodipodi:arg1="2.1627305"
           sodipodi:arg2="2.791049"
           inkscape:rounded="0"
           inkscape:randomized="0"
           transform="matrix(0.10299882,0,0,0.10299882,-42.045703,164.6294)"
           inkscape:transform-center-x="0.014193252"
           inkscape:transform-center-y="-0.10699908"
           d="m -508.17622,495.18278 2.30368,-8.51413 -7.25236,-5.02001 8.80929,-0.44008 2.53321,-8.44868 3.14077,8.24214 8.81797,-0.20155 -6.86819,5.534 2.91659,8.32411 -7.38554,-4.82194 z" />
      </g>
    </g>
  </g>
</svg>
